<svg xmlns="http://www.w3.org/2000/svg" xmlns:xlink="http://www.w3.org/1999/xlink" height="23.93440187734245" width="120.91728591918945">
  <g opacity="1">
    <path fill="rgb(255,255,255)" fill-opacity="1" opacity="1" fill-rule="evenodd" d="M2.4462509155273438 23.700441360473633L7.342109680175781 23.700441360473633L7.342109680175781 11.848543167114258L10.608810424804688 11.848543167114258L11.041423797607422 7.764883041381836L7.342109680175781 7.764883041381836L7.348262786865234 5.720815658569336C7.348262786865234 4.655683517456055 7.449001312255859 4.08477783203125 8.976860046386719 4.08477783203125L11.019039154052734 4.08477783203125L11.019039154052734 0L7.751773834228516 0C3.8274765014648438 0 2.4468116760253906 1.9808197021484375 2.4468116760253906 5.312786102294922L2.4468116760253906 7.765443801879883L0 7.765443801879883L0 11.849102020263672L2.4462509155273438 11.849102020263672L2.4462509155273438 23.700441360473633ZM116.64207458496094 23.700441360473633L111.33711242675781 23.700441360473633L106.85035705566406 16.20981788635254L106.85035705566406 23.700441360473633L101.95449829101562 23.700441360473633L101.95449829101562 1.2263298034667969L106.85035705566406 0.4097099304199219L106.85035705566406 14.877702713012695L111.33711242675781 7.765443801879883L116.64207458496094 7.765443801879883L111.74397277832031 15.526971817016602L116.64207458496094 23.700441360473633ZM61.4002571105957 23.912572860717773C68.08253479003906 23.912572860717773 69.18560791015625 21.09722328186035 69.18560791015625 17.23744773864746L69.18505859375 17.23744773864746L69.18505859375 13.256776809692383C69.18505859375 9.730031967163086 68.36964416503906 7.535402297973633 63.47490310668945 7.535402297973633C62.22910690307617 7.535402297973633 60.86019515991211 7.735219955444336 59.80244827270508 8.128137588500977L59.80244827270508 0.41026878356933594L54.908267974853516 1.226888656616211L54.908267974853516 23.290735244750977C57.5716667175293 23.700441360473633 58.98703384399414 23.912572860717773 61.4002571105957 23.912572860717773ZM33.45950698852539 11.617380142211914C34.68123245239258 11.617380142211914 35.410465240478516 11.713090896606445 37.94961929321289 12.14854621887207L37.94961929321289 8.167316436767578C35.72555160522461 7.666374206542969 34.276607513427734 7.534841537475586 33.05208206176758 7.534841537475586C27.79580307006836 7.534841537475586 25.706615447998047 10.304296493530273 25.706615447998047 14.301198959350586L25.706615447998047 17.16188621520996C25.706615447998047 21.155431747436523 27.79580307006836 23.91984748840332 33.05208206176758 23.91984748840332C34.276607513427734 23.91984748840332 35.72555160522461 23.78887367248535 37.94961929321289 23.290170669555664L37.94961929321289 19.306703567504883C35.410465240478516 19.743837356567383 34.68123245239258 19.84122657775879 33.45950698852539 19.84122657775879C31.26510238647461 19.84122657775879 30.601917266845703 19.35483741760254 30.601917266845703 17.490999221801758L30.601917266845703 13.965372085571289C30.601917266845703 12.101530075073242 31.26510238647461 11.617380142211914 33.45950698852539 11.617380142211914ZM53.27071762084961 17.16188621520996L44.29274368286133 17.16188621520996L44.29274368286133 17.490999221801758C44.29274368286133 19.35483741760254 44.95649337768555 19.84122657775879 47.150333404541016 19.84122657775879C49.122562408447266 19.84122657775879 50.32637405395508 19.743837356567383 52.86104965209961 19.306703567504883L52.86104965209961 23.290170669555664C50.41647720336914 23.78887367248535 49.142704010009766 23.91984748840332 46.74458694458008 23.91984748840332C41.48775100708008 23.91984748840332 39.39744186401367 21.155431747436523 39.39744186401367 17.16188621520996L39.39744186401367 13.890932083129883C39.39744186401367 10.396648406982422 40.948246002197266 7.534841537475586 46.33491897583008 7.534841537475586C51.72159194946289 7.534841537475586 53.27071762084961 10.363626480102539 53.27071762084961 13.890932083129883L53.27071762084961 17.16188621520996ZM84.87442016601562 17.3214054107666C84.87442016601562 20.651132583618164 83.49990844726562 23.88067054748535 77.74888610839844 23.88067054748535C71.99508666992188 23.88067054748535 70.59483337402344 20.651132583618164 70.59483337402344 17.3214054107666L70.59483337402344 14.106420516967773C70.59483337402344 10.775012969970703 71.99508666992188 7.544916152954102 77.74888610839844 7.544916152954102C83.49990844726562 7.544916152954102 84.87442016601562 10.775012969970703 84.87442016601562 14.106420516967773L84.87442016601562 17.3214054107666ZM93.42649841308594 23.88067054748535C99.1763916015625 23.88067054748535 100.55258178710938 20.651132583618164 100.55258178710938 17.3214054107666L100.55258178710938 14.106420516967773C100.55258178710938 10.775012969970703 99.1763916015625 7.544916152954102 93.42649841308594 7.544916152954102C87.67268371582031 7.544916152954102 86.27243041992188 10.775012969970703 86.27243041992188 14.106420516967773L86.27243041992188 17.3214054107666C86.27243041992188 20.651132583618164 87.67268371582031 23.88067054748535 93.42649841308594 23.88067054748535ZM24.074100494384766 23.731225967407227L19.99365997314453 23.731225967407227L19.817367553710938 22.69911766052246C17.95427703857422 23.731225967407227 16.291545867919922 23.89858055114746 15.194622039794922 23.89858055114746C12.2021484375 23.89858055114746 10.609371185302734 21.899290084838867 10.609371185302734 19.134313583374023C10.609371185302734 15.872312545776367 12.46798324584961 14.708108901977539 15.792892456054688 14.708108901977539L19.1771240234375 14.708108901977539L19.1771240234375 14.002874374389648C19.1771240234375 12.337732315063477 18.986278533935547 11.849102020263672 16.425861358642578 11.849102020263672L12.239643096923828 11.849102020263672L12.648754119873047 7.765443801879883L17.2244873046875 7.765443801879883C22.842304229736328 7.765443801879883 24.074100494384766 9.540290832519531 24.074100494384766 14.035898208618164L24.074100494384766 23.731225967407227ZM46.33548355102539 11.212709426879883C44.67274856567383 11.212709426879883 44.29330062866211 12.125600814819336 44.29330062866211 13.256216049194336L44.29330062866211 13.891489028930664L48.375423431396484 13.891489028930664L48.375423431396484 13.256216049194336C48.375423431396484 12.125600814819336 47.995975494384766 11.212709426879883 46.33548355102539 11.212709426879883ZM62.25093460083008 11.624656677246094C61.25251388549805 11.624656677246094 60.53279495239258 11.95208740234375 59.80300521850586 12.285676956176758L59.80300521850586 19.833951950073242C60.502010345458984 19.900556564331055 60.90272903442383 19.900556564331055 61.565914154052734 19.900556564331055C63.96236038208008 19.900556564331055 64.29087829589844 18.802961349487305 64.29087829589844 17.270471572875977L64.29087829589844 13.665365219116211C64.29087829589844 12.533628463745117 63.915348052978516 11.624656677246094 62.25093460083008 11.624656677246094ZM77.732666015625 11.624656677246094C76.06712341308594 11.624656677246094 75.49012756347656 12.533628463745117 75.49012756347656 13.665365219116211L75.49012756347656 17.795480728149414C75.49012756347656 18.930017471313477 76.06712341308594 19.841787338256836 77.732666015625 19.841787338256836C79.39370727539062 19.841787338256836 79.97518920898438 18.930017471313477 79.97518920898438 17.795480728149414L79.97518920898438 13.665365219116211C79.97463989257812 12.533628463745117 79.39315795898438 11.624656677246094 77.732666015625 11.624656677246094ZM91.16996765136719 13.665365219116211C91.16996765136719 12.533628463745117 91.74697875976562 11.624656677246094 93.40969848632812 11.624656677246094C95.07020568847656 11.624656677246094 95.6578369140625 12.533628463745117 95.6578369140625 13.665365219116211L95.6578369140625 17.795480728149414C95.6578369140625 18.930017471313477 95.07020568847656 19.841787338256836 93.40969848632812 19.841787338256836C91.74697875976562 19.841787338256836 91.16996765136719 18.930017471313477 91.16996765136719 17.795480728149414L91.16996765136719 13.665365219116211ZM16.857357025146484 20.42836570739746C15.926090240478516 20.42836570739746 15.504112243652344 19.963804244995117 15.504112243652344 19.069387435913086C15.504112243652344 18.1699275970459 15.958553314208984 17.977388381958008 16.992794036865234 17.977388381958008L19.1771240234375 17.977388381958008L19.1771240234375 19.767908096313477C18.447895050048828 20.10261344909668 17.856342315673828 20.42836570739746 16.857357025146484 20.42836570739746ZM119.43643188476562 20.905241012573242C120.26080322265625 20.905241012573242 120.91728210449219 21.577455520629883 120.91728210449219 22.417024612426758C120.91728210449219 23.26946449279785 120.26025390625 23.93440055847168 119.43028259277344 23.93440055847168C118.60423278808594 23.93440055847168 117.934326171875 23.26946449279785 117.934326171875 22.417024612426758C117.934326171875 21.577455520629883 118.60423278808594 20.905241012573242 119.43028259277344 20.905241012573242L119.43643188476562 20.905241012573242ZM118.22254943847656 22.417024612426758C118.22254943847656 21.7117862701416 118.76597595214844 21.140321731567383 119.43028259277344 21.140321731567383L119.43644714355469 21.140321731567383C120.10690307617188 21.140321731567383 120.64250183105469 21.71234703063965 120.64250183105469 22.423742294311523C120.64250183105469 23.135133743286133 120.10690307617188 23.70604133605957 119.43644714355469 23.699323654174805C118.76654052734375 23.699323654174805 118.22254943847656 23.135133743286133 118.22254943847656 22.417024612426758ZM119.14933776855469 23.29688835144043L118.88014221191406 23.29688835144043L118.88014221191406 21.60991859436035C119.02117919921875 21.5903263092041 119.15548706054688 21.570737838745117 119.35696411132812 21.570737838745117C119.61216735839844 21.570737838745117 119.77894592285156 21.62447166442871 119.88136291503906 21.69779396057129C119.98042297363281 21.772233963012695 120.03358459472656 21.885854721069336 120.03358459472656 22.046491622924805C120.03358459472656 22.269258499145508 119.886962890625 22.40302848815918 119.70619201660156 22.45732307434082L119.70619201660156 22.47019386291504C119.85337829589844 22.497621536254883 119.95355224609375 22.630830764770508 119.98770141601562 22.878786087036133C120.02687072753906 23.14129066467285 120.06773376464844 23.241479873657227 120.09403991699219 23.29633140563965L119.81253051757812 23.29633140563965C119.77279663085938 23.241479873657227 119.73193359375 23.087556838989258 119.6983642578125 22.8653507232666C119.6591796875 22.65097999572754 119.55061340332031 22.570383071899414 119.33570861816406 22.570383071899414L119.14933776855469 22.570383071899414L119.14933776855469 23.29688835144043ZM119.34353637695312 22.363290786743164L119.14877319335938 22.363290786743164L119.14877319335938 21.7912654876709C119.19467163085938 21.78510856628418 119.25566101074219 21.778390884399414 119.34353637695312 21.778390884399414C119.64518737792969 21.778390884399414 119.75152587890625 21.925596237182617 119.75152587890625 22.0733585357666C119.75152587890625 22.282133102416992 119.56404113769531 22.363290786743164 119.34353637695312 22.363290786743164Z"/>
  </g>
</svg>